<?xml version="1.0" encoding="UTF-8"?>
<svg xmlns="http://www.w3.org/2000/svg" viewBox="0 0 24 24" fill="none" stroke="currentColor" stroke-width="1.75" stroke-linecap="round" stroke-linejoin="round" aria-hidden="true" role="img">
  <title>Цепь и звёзды</title>
  <path d="M 8.00 7.00 L 9.11 8.58 L 10.94 7.95 L 10.91 9.88 L 12.76 10.45 L 11.60 12.00 L 12.76 13.55 L 10.91 14.12 L 10.94 16.05 L 9.11 15.42 L 8.00 17.00 L 6.89 15.42 L 5.06 16.05 L 5.09 14.12 L 3.24 13.55 L 4.40 12.00 L 3.24 10.45 L 5.09 9.88 L 5.06 7.95 L 6.89 8.58 Z"/>
  <circle cx="8" cy="12" r="1.2"/>
  <circle cx="15" cy="10" r="1.2"/>
  <circle cx="18.2" cy="11.6" r="1.2"/>
  <path d="M 13.9 10.4 L 12.9 10.7"/>
  <path d="M 17 10.6 L 16.2 11"/>
  <path d="M 20.4 12.4 L 19.4 12.1"/>
</svg>
